<svg width="265" height="48" viewBox="0 0 265 48" fill="none" xmlns="http://www.w3.org/2000/svg">
<path d="M44.64 43.2C44.64 43.824 44.384 44.392 43.96 44.768C43.608 45.072 43.144 45.24 42.36 45.24H41.52V41.16H42.36C43.144 41.16 43.608 41.328 43.96 41.632C44.384 42.008 44.64 42.576 44.64 43.2ZM42.4 46C43.288 46 43.872 45.808 44.328 45.472C45.016 44.96 45.44 44.128 45.44 43.2C45.44 42.272 45.008 41.44 44.32 40.928C43.864 40.592 43.288 40.4 42.4 40.4H40.72V46H42.4ZM48.8788 46H49.6788V40.4H48.8788V46ZM53.0809 45.144C53.5769 45.744 54.2729 46.08 55.0409 46.08C56.0169 46.08 56.7769 45.44 56.7769 44.456C56.7769 43.816 56.4249 43.424 56.0489 43.176C55.3289 42.696 54.1369 42.544 54.1369 41.832C54.1369 41.344 54.6009 41.08 55.0649 41.08C55.4169 41.08 55.7609 41.208 56.0649 41.464L56.5369 40.88C56.2409 40.632 55.7449 40.32 55.0329 40.32C54.0569 40.32 53.3369 40.992 53.3369 41.808C53.3369 42.392 53.6489 42.776 54.0489 43.04C54.7929 43.528 55.9769 43.624 55.9769 44.48C55.9769 44.984 55.5209 45.32 55.0009 45.32C54.4249 45.32 53.9609 45 53.6329 44.6L53.0809 45.144ZM59.5025 41.16H61.0225V46H61.8225V41.16H63.3425V40.4H59.5025V41.16ZM66.6206 46H67.4206V40.4H66.6206V46ZM72.1028 40.4H71.3028V46H74.5828V45.24H72.1028V40.4ZM78.6991 40.4H77.8991V46H81.1791V45.24H78.6991V40.4ZM85.2953 42.6V41.16H87.6953V40.4H84.4953V46H87.7753V45.24H85.2953V43.36H87.1353V42.6H85.2953ZM95.1756 43.2C95.1756 43.824 94.9196 44.392 94.4956 44.768C94.1436 45.072 93.6796 45.24 92.8956 45.24H92.0556V41.16H92.8956C93.6796 41.16 94.1436 41.328 94.4956 41.632C94.9196 42.008 95.1756 42.576 95.1756 43.2ZM92.9356 46C93.8236 46 94.4076 45.808 94.8636 45.472C95.5516 44.96 95.9756 44.128 95.9756 43.2C95.9756 42.272 95.5436 41.44 94.8556 40.928C94.3996 40.592 93.8236 40.4 92.9356 40.4H91.2556V46H92.9356ZM108.171 46H108.731V40.4H107.931V44.512L104.571 40.4H104.011V46H104.811V41.888L108.171 46ZM112.167 43.2C112.167 44.832 113.383 46.08 114.967 46.08C116.551 46.08 117.767 44.832 117.767 43.2C117.767 41.568 116.551 40.32 114.967 40.32C113.383 40.32 112.167 41.568 112.167 43.2ZM112.967 43.2C112.967 41.992 113.823 41.08 114.967 41.08C116.111 41.08 116.967 41.992 116.967 43.2C116.967 44.416 116.111 45.32 114.967 45.32C113.823 45.32 112.967 44.416 112.967 43.2ZM125.363 46H125.923V40.4H125.123V44.512L121.763 40.4H121.203V46H122.003V41.888L125.363 46ZM129.719 43.64V44.28H132.119V43.64H129.719ZM139.287 46H140.119L137.799 40.4H137.239L134.919 46H135.751L136.335 44.56H138.695L139.287 46ZM137.519 41.72L138.383 43.8H136.655L137.519 41.72ZM144.12 40.4H143.32V46H146.6V45.24H144.12V40.4ZM149.195 43.2C149.195 44.856 150.427 46.08 152.099 46.08C152.963 46.08 153.795 45.656 154.275 45.04L153.707 44.528C153.395 44.904 152.851 45.32 152.099 45.32C150.907 45.32 149.995 44.464 149.995 43.2C149.995 41.992 150.883 41.08 152.027 41.08C152.627 41.08 153.211 41.352 153.539 41.712L154.075 41.184C153.587 40.648 152.827 40.32 152.027 40.32C150.411 40.32 149.195 41.584 149.195 43.2ZM157.08 43.2C157.08 44.832 158.296 46.08 159.88 46.08C161.464 46.08 162.68 44.832 162.68 43.2C162.68 41.568 161.464 40.32 159.88 40.32C158.296 40.32 157.08 41.568 157.08 43.2ZM157.88 43.2C157.88 41.992 158.736 41.08 159.88 41.08C161.024 41.08 161.88 41.992 161.88 43.2C161.88 44.416 161.024 45.32 159.88 45.32C158.736 45.32 157.88 44.416 157.88 43.2ZM170.037 46H170.837V40.4H170.037V42.6H166.917V40.4H166.117V46H166.917V43.36H170.037V46ZM174.273 43.2C174.273 44.832 175.489 46.08 177.073 46.08C178.657 46.08 179.873 44.832 179.873 43.2C179.873 41.568 178.657 40.32 177.073 40.32C175.489 40.32 174.273 41.568 174.273 43.2ZM175.073 43.2C175.073 41.992 175.929 41.08 177.073 41.08C178.217 41.08 179.073 41.992 179.073 43.2C179.073 44.416 178.217 45.32 177.073 45.32C175.929 45.32 175.073 44.416 175.073 43.2ZM184.109 40.4H183.309V46H186.589V45.24H184.109V40.4ZM189.905 46H190.705V40.4H189.905V46ZM194.148 43.2C194.148 44.856 195.38 46.08 197.052 46.08C197.916 46.08 198.748 45.656 199.228 45.04L198.66 44.528C198.348 44.904 197.804 45.32 197.052 45.32C195.86 45.32 194.948 44.464 194.948 43.2C194.948 41.992 195.836 41.08 196.98 41.08C197.58 41.08 198.164 41.352 198.492 41.712L199.028 41.184C198.54 40.648 197.78 40.32 196.98 40.32C195.364 40.32 194.148 41.584 194.148 43.2ZM206.511 45.144C207.007 45.744 207.703 46.08 208.471 46.08C209.447 46.08 210.207 45.44 210.207 44.456C210.207 43.816 209.855 43.424 209.479 43.176C208.759 42.696 207.567 42.544 207.567 41.832C207.567 41.344 208.031 41.08 208.495 41.08C208.847 41.08 209.191 41.208 209.495 41.464L209.967 40.88C209.671 40.632 209.175 40.32 208.463 40.32C207.487 40.32 206.767 40.992 206.767 41.808C206.767 42.392 207.079 42.776 207.479 43.04C208.223 43.528 209.407 43.624 209.407 44.48C209.407 44.984 208.951 45.32 208.431 45.32C207.855 45.32 207.391 45 207.063 44.6L206.511 45.144ZM214.489 42.76V41.16H215.769C216.153 41.16 216.361 41.256 216.505 41.408C216.641 41.552 216.729 41.744 216.729 41.96C216.729 42.176 216.641 42.368 216.505 42.512C216.361 42.664 216.153 42.76 215.769 42.76H214.489ZM215.809 43.52C216.353 43.52 216.705 43.384 216.977 43.152C217.313 42.864 217.529 42.44 217.529 41.96C217.529 41.48 217.313 41.056 216.977 40.768C216.705 40.536 216.353 40.4 215.809 40.4H213.689V46H214.489V43.52H215.809ZM220.926 46H221.726V40.4H220.926V46ZM227.048 43.36L229.04 46H230.008L228 43.328C228.28 43.28 228.48 43.176 228.656 43.032C228.992 42.76 229.208 42.344 229.208 41.88C229.208 41.416 228.992 41 228.656 40.728C228.4 40.52 228.08 40.4 227.568 40.4H225.608V46H226.408V43.36H227.048ZM226.408 42.6V41.16H227.528C227.888 41.16 228.072 41.24 228.2 41.368C228.328 41.496 228.408 41.68 228.408 41.88C228.408 42.08 228.328 42.264 228.2 42.392C228.072 42.52 227.888 42.6 227.528 42.6H226.408ZM233.165 46H233.965V40.4H233.165V46ZM237.247 41.16H238.767V46H239.567V41.16H241.087V40.4H237.247V41.16ZM243.807 45.144C244.303 45.744 244.999 46.08 245.767 46.08C246.743 46.08 247.503 45.44 247.503 44.456C247.503 43.816 247.151 43.424 246.775 43.176C246.055 42.696 244.863 42.544 244.863 41.832C244.863 41.344 245.327 41.08 245.791 41.08C246.143 41.08 246.487 41.208 246.791 41.464L247.263 40.88C246.967 40.632 246.471 40.32 245.759 40.32C244.783 40.32 244.063 40.992 244.063 41.808C244.063 42.392 244.375 42.776 244.775 43.04C245.519 43.528 246.703 43.624 246.703 44.48C246.703 44.984 246.247 45.32 245.727 45.32C245.151 45.32 244.687 45 244.359 44.6L243.807 45.144Z" fill="#144734"/>
<path d="M126.243 30.2005C125.872 29.3723 125.64 28.4901 125.555 27.5882C125.417 25.9945 125.36 24.395 125.384 22.7957V1.96669H117.255C117.453 2.01363 117.647 2.07166 117.838 2.14051C118.471 2.3694 119.04 2.74588 119.495 3.23808C120.056 3.83119 120.443 4.56434 120.614 5.35872C120.839 6.5772 120.935 7.81555 120.901 9.0537V26.6049C120.935 27.843 120.839 29.0814 120.614 30.2998C120.442 31.0965 120.053 31.8315 119.49 32.4255C119.023 32.9126 118.449 33.2865 117.813 33.5181C117.622 33.5876 117.428 33.6456 117.23 33.6919H132.293C131.13 33.6348 129.988 33.3654 128.924 32.8973C127.737 32.3382 126.788 31.3833 126.243 30.2005V30.2005ZM58.8737 2.27957C58.0469 2.10805 57.2073 2.00341 56.3633 1.96669H64.3514L64.6627 7.92633C64.4908 7.23525 64.2327 6.56796 63.8945 5.93978C63.3504 4.97624 62.5978 4.14355 61.6904 3.50129C60.8481 2.90395 59.8886 2.48777 58.8737 2.27957V2.27957ZM65.23 30.6177C64.3543 31.6926 63.1979 32.5101 61.8862 32.9817C60.7192 33.3915 59.498 33.6307 58.2612 33.6919H67.1932L67.4543 25.8102C67.2562 26.616 67.0029 27.4075 66.6961 28.1792C66.3376 29.062 65.843 29.8846 65.23 30.6177V30.6177ZM49.6656 30.2005C49.2903 29.3739 49.0578 28.4909 48.9778 27.5882C48.8396 25.9945 48.7826 24.395 48.8071 22.7957V1.96669H40.6583C40.8556 2.01363 41.0501 2.07166 41.2407 2.14051C41.8735 2.37062 42.4416 2.74691 42.8976 3.23808C43.4587 3.83119 43.8458 4.56434 44.0172 5.35872C44.2396 6.57752 44.3355 7.81561 44.3034 9.0537V26.6049C44.3355 27.843 44.2396 29.081 44.0172 30.2998C43.8452 31.0965 43.4563 31.8315 42.8926 32.4255C42.4253 32.9116 41.8517 33.2854 41.2156 33.5181C41.0252 33.5876 40.8307 33.6456 40.6332 33.6919H55.6956C54.5327 33.6348 53.3904 33.3654 52.3266 32.8973C51.1401 32.3382 50.1908 31.3833 49.6455 30.2005H49.6656ZM56.0119 15.5646C55.4678 16.127 54.77 16.5204 54.0036 16.6969C53.179 16.8773 52.3376 16.9722 51.4932 16.98C52.1978 17.0115 52.8959 17.1283 53.5718 17.3277C54.3514 17.5495 55.058 17.9709 55.6203 18.5494C56.1703 19.1387 56.5954 19.8311 56.8704 20.5856C57.0602 21.1093 57.2062 21.6475 57.3073 22.1947L57.3826 12.555C57.3061 12.9723 57.2004 13.3838 57.0662 13.7867C56.8536 14.4498 56.4933 15.0574 56.0119 15.5646V15.5646ZM147.812 10.8764C149.045 13.4206 149.673 16.2099 149.65 19.0311C149.66 21.0991 149.304 23.1529 148.6 25.1001C147.991 26.8553 147.008 28.4608 145.718 29.8082C143.974 31.5653 141.715 32.7347 139.262 33.1505C137.683 33.4316 136.085 33.5976 134.482 33.6472C135.444 33.5042 136.382 33.2301 137.268 32.8327C138.826 32.0876 140.171 30.9715 141.185 29.5847C142.326 28.1078 143.191 26.4411 143.74 24.663C144.329 22.7628 144.624 20.7853 144.614 18.7977C144.622 16.5722 144.266 14.3599 143.559 12.2471C142.897 10.2559 141.867 8.40349 140.522 6.78407C138.827 4.71428 136.526 3.21375 133.934 2.48815C132.784 2.20108 131.606 2.03462 130.42 1.99152C132.348 1.99152 133.633 2.03125 134.256 2.08091C137.267 2.23315 140.178 3.19658 142.676 4.86705C144.877 6.40552 146.644 8.4738 147.812 10.8764ZM172.966 32.8973C174.026 33.3655 175.165 33.635 176.325 33.6919H161.263C162.119 33.4859 162.9 33.0473 163.517 32.4255C164.079 31.831 164.466 31.096 164.637 30.2998C164.867 29.0821 164.965 27.8433 164.928 26.6049V9.0537C164.969 7.77313 164.865 6.49201 164.617 5.23456C164.426 4.41087 163.997 3.66005 163.381 3.07419C162.91 2.6338 162.351 2.29551 161.74 2.08091C161.609 2.03621 161.468 1.99648 161.328 1.95675H173.097C172.911 2.00145 172.745 2.04615 172.595 2.10078C171.982 2.30843 171.423 2.64762 170.958 3.09405C170.338 3.69104 169.907 4.45383 169.718 5.28919C169.481 6.53639 169.382 7.80523 169.421 9.07357V22.7957C169.421 24.9113 169.477 26.5105 169.592 27.5485C169.667 28.4658 169.898 29.3641 170.275 30.2055C170.835 31.3802 171.785 32.33 172.966 32.8973ZM187.336 27.9855C187.654 27.1499 187.914 26.2937 188.114 25.4229L187.848 33.6919H178.865C180.111 33.6293 181.34 33.3815 182.511 32.9569C183.843 32.4626 185.013 31.6176 185.895 30.5134C186.494 29.7431 186.98 28.8918 187.336 27.9855V27.9855ZM209.748 33.3244C210.092 33.4848 210.452 33.608 210.823 33.6919H198.913C199.122 33.6423 199.326 33.5793 199.526 33.5032C200.149 33.2709 200.711 32.9044 201.173 32.4304C201.75 31.847 202.145 31.1103 202.308 30.3098C202.528 29.0874 202.62 27.8459 202.584 26.6049V9.0537C202.62 7.81264 202.528 6.57116 202.308 5.34878C202.151 4.62427 201.812 3.95055 201.322 3.38981C200.832 2.82908 200.208 2.39942 199.506 2.14051C199.315 2.07166 199.121 2.01363 198.924 1.96669H210.753C210.555 2.01293 210.361 2.07098 210.17 2.14051C209.534 2.37273 208.96 2.74656 208.493 3.23311C207.768 4.02812 207.327 5.03664 207.238 6.10367C207.135 7.08367 207.087 8.06847 207.092 9.0537V26.6049C207.077 27.6694 207.142 28.7335 207.288 29.7883C207.384 30.4885 207.618 31.1633 207.976 31.7749C208.408 32.4461 209.022 32.9831 209.748 33.3244V33.3244ZM233.677 30.3743C233.834 31.1045 234.173 31.7842 234.663 32.3516C235.153 32.9189 235.779 33.3558 236.484 33.6224C236.61 33.667 236.74 33.7117 236.876 33.7515H225.428C225.569 33.7117 225.699 33.667 225.82 33.6224C226.448 33.3855 227.016 33.014 227.482 32.5347C228.07 31.9439 228.473 31.1969 228.642 30.3843C228.862 29.1535 228.954 27.9038 228.918 26.6545V9.00404C228.936 7.92164 228.874 6.8394 228.732 5.76596C228.64 5.0655 228.408 4.39018 228.049 3.77941C227.618 3.10149 227.004 2.5562 226.277 2.20507C226.01 2.07882 225.733 1.97419 225.448 1.89219H233.346V26.6446C233.313 27.8951 233.415 29.1455 233.652 30.3743H233.677ZM250 10.2953C250 13.0864 248.926 15.063 246.721 16.3493C245.423 17.0636 243.977 17.4779 242.494 17.5611C241.957 17.6108 240.636 17.6356 238.563 17.6356H238.236C238.829 17.5873 239.416 17.4926 239.994 17.3525C240.931 17.1019 241.792 16.6298 242.504 15.9768C243.335 15.2173 243.99 14.2886 244.423 13.2546C244.857 12.2205 245.058 11.1059 245.014 9.98738C245.026 8.69608 244.781 7.41514 244.291 6.2179C243.841 5.11731 243.122 4.14457 242.198 3.38707C241.252 2.6021 240.108 2.08699 238.889 1.89715C240.467 1.87896 242.043 2.00196 243.598 2.26467C244.745 2.50866 245.822 3.00613 246.747 3.71981C247.788 4.47053 248.627 5.46275 249.19 6.60929C249.753 7.75582 250.022 9.02157 249.975 10.2953H250ZM20.3392 1.90709H20.3141H20.3392ZM32.364 32.6042C32.364 32.3659 32.364 33.1009 32.364 32.6042V32.6042ZM32.364 32.6042C32.364 39.587 26.1533 48 15.8958 48C7.11947 48 0 42.686 0 36.1353C0 30.9008 4.5187 26.4658 10.8298 24.8865C8.62381 25.7543 6.72774 27.25 5.38171 29.1844C4.03568 31.1188 3.30024 33.4048 3.26853 35.7529C3.26853 42.3085 8.92193 47.6226 15.8958 47.6226C24.5567 47.6226 28.4126 40.4213 28.4126 36.2347C28.4126 25.557 14.6456 21.5094 10.142 18.3557C9.01221 17.6041 8.03894 16.6447 7.27511 15.5299C6.6571 14.5687 6.24051 13.4946 6.05004 12.3712C5.62829 10.037 6.26092 7.75748 7.31528 5.68153C8.14231 4.05853 9.3963 2.68602 10.9453 1.70843C10.2475 2.45947 9.72131 3.35029 9.4025 4.32036C9.08368 5.29043 8.97972 6.31702 9.09766 7.33037C9.27841 9.41625 10.7495 11.2538 12.326 12.5798C13.772 13.8016 21.6346 17.7399 23.8738 19.1305C25.6964 20.2529 32.364 24.8468 32.364 32.6042ZM26.6102 13.6426C26.1483 12.0882 25.7064 10.5287 25.1843 8.9941C24.7223 7.62338 23.2864 4.52437 21.4136 2.72654C20.1941 1.57461 18.6434 0.825041 16.9753 0.581067C18.166 0.562014 19.3522 0.729637 20.4898 1.0777C21.5844 1.39059 23.7935 2.56762 24.9282 2.16534C25.8771 1.81769 26.1382 0.422142 26.339 0L26.5298 10.4741C26.5633 11.527 26.5901 12.5831 26.6102 13.6426ZM97.1723 2.27957C96.3454 2.10825 95.5059 2.00361 94.6619 1.96669H102.655L102.966 7.92633C102.792 7.23595 102.534 6.56893 102.198 5.93978C101.654 4.97624 100.901 4.14355 99.994 3.50129C99.1501 2.90332 98.1889 2.48711 97.1723 2.27957ZM103.529 30.6177C102.653 31.6926 101.496 32.5101 100.185 32.9817C99.0177 33.3915 97.7966 33.6307 96.5598 33.6919H105.487L105.753 25.8102C105.555 26.616 105.301 27.4075 104.995 28.1792C104.634 29.0611 104.14 29.8833 103.529 30.6177V30.6177ZM87.9391 30.2005C87.5649 29.3729 87.3292 28.4906 87.2412 27.5882C87.1307 26.5949 87.0755 24.9759 87.0755 22.7957V1.96669H78.9569C79.1526 2.0136 79.3453 2.07163 79.5343 2.14051C80.1683 2.36816 80.7369 2.74483 81.1911 3.23808C81.7545 3.82956 82.142 4.56338 82.3108 5.35872C82.5379 6.57695 82.6355 7.81536 82.602 9.0537V26.6049C82.6355 27.8432 82.5379 29.0816 82.3108 30.2998C82.1401 31.096 81.753 31.831 81.1911 32.4255C80.7239 32.9116 80.1502 33.2854 79.5142 33.5181C79.3235 33.5869 79.1291 33.6449 78.9318 33.6919H93.9941C92.8297 33.6342 91.686 33.3648 90.6202 32.8973C89.4357 32.3354 88.4872 31.3814 87.9391 30.2005V30.2005ZM94.3104 15.5646C93.7648 16.1249 93.0676 16.518 92.3021 16.6969C91.4775 16.8773 90.6362 16.9722 89.7917 16.98C90.4963 17.012 91.1943 17.1287 91.8703 17.3277C92.65 17.5495 93.3566 17.9709 93.9188 18.5494C94.4655 19.1403 94.8887 19.8323 95.164 20.5856C95.3532 21.1098 95.5009 21.6478 95.6058 22.1947L95.6811 12.555C95.6046 12.9723 95.4989 13.3838 95.3648 13.7867C95.1501 14.4489 94.7901 15.0561 94.3104 15.5646V15.5646Z" fill="#144734"/>
<path d="M256.527 8.72852C256.527 7.93945 256.709 7.20703 257.072 6.53125C257.439 5.85547 257.945 5.32422 258.59 4.9375C259.238 4.54688 259.938 4.35156 260.688 4.35156C261.438 4.35156 262.135 4.54688 262.779 4.9375C263.424 5.32422 263.928 5.85547 264.291 6.53125C264.658 7.20703 264.842 7.93945 264.842 8.72852C264.842 9.49805 264.666 10.2188 264.314 10.8906C263.963 11.5625 263.463 12.1035 262.814 12.5137C262.17 12.9199 261.461 13.123 260.688 13.123C259.918 13.123 259.209 12.9219 258.561 12.5195C257.916 12.1133 257.416 11.5742 257.061 10.9023C256.705 10.2305 256.527 9.50586 256.527 8.72852ZM257.201 8.72852C257.201 9.40039 257.357 10.0234 257.67 10.5977C257.982 11.168 258.406 11.6152 258.941 11.9395C259.48 12.2637 260.062 12.4258 260.688 12.4258C261.316 12.4258 261.9 12.2617 262.439 11.9336C262.979 11.6016 263.4 11.1523 263.705 10.5859C264.014 10.0195 264.168 9.40039 264.168 8.72852C264.168 8.06055 264.014 7.44531 263.705 6.88281C263.4 6.31641 262.979 5.87109 262.439 5.54688C261.9 5.21875 261.316 5.05469 260.688 5.05469C260.062 5.05469 259.48 5.2168 258.941 5.54102C258.402 5.86133 257.977 6.30664 257.664 6.87695C257.355 7.44727 257.201 8.06445 257.201 8.72852ZM259.826 9.16797V11.1484H259V6.17383H260.617C261.215 6.17383 261.678 6.30273 262.006 6.56055C262.338 6.81445 262.504 7.18555 262.504 7.67383C262.504 8.1543 262.254 8.52148 261.754 8.77539C262.23 8.9707 262.471 9.36914 262.475 9.9707V10.3281C262.475 10.6641 262.508 10.9062 262.574 11.0547V11.1484H261.725C261.67 11.0078 261.643 10.7578 261.643 10.3984C261.643 10.0352 261.637 9.82031 261.625 9.75391C261.562 9.37891 261.307 9.18359 260.857 9.16797H259.826ZM259.826 8.41797H260.74C261.021 8.41016 261.248 8.3418 261.42 8.21289C261.592 8.08398 261.678 7.91406 261.678 7.70312C261.678 7.41797 261.602 7.2168 261.449 7.09961C261.297 6.97852 261.025 6.91797 260.635 6.91797H259.826V8.41797Z" fill="#144734"/>
</svg>
